<svg id="Layer_1" data-name="Layer 1" xmlns="http://www.w3.org/2000/svg" viewBox="0 0 153.09 75.99">
  <defs>
    <style>
      .cls-1 {
        fill: none;
      }

      .cls-2, .cls-6 {
        fill: #ff3842;
      }

      .cls-3, .cls-4 {
        fill: #fff;
      }

      .cls-3 {
        stroke: #000;
        stroke-miterlimit: 10;
        stroke-width: 11px;
      }

      .cls-5 {
        fill: #e1ebf7;
      }

      .cls-6 {
        font-size: 8.98px;
        font-family: Rockwell-Regular, Rockwell;
      }

      .cls-7, .cls-8, .cls-9 {
        fill: #000;
      }

      .cls-8 {
        letter-spacing: -0.05em;
      }

      .cls-9 {
        letter-spacing: -0.1em;
      }
    </style>
  </defs>
  <path class="cls-1" d="M105.13,87.24" transform="translate(-51.88 -12.6)"/>
  <g>
    <polygon class="cls-2" points="83.53 3.94 76.73 20.56 89.65 33.24 109.38 29.3 116.18 12.68 103.25 0 83.53 3.94"/>
    <polygon class="cls-2" points="72.91 3.96 79.44 22.08 66.17 36.23 46.37 32.28 39.84 14.16 53.11 0.01 72.91 3.96"/>
    <ellipse class="cls-3" cx="53.41" cy="30.97" rx="21.05" ry="20.58"/>
    <ellipse class="cls-3" cx="102.5" cy="30.97" rx="21.05" ry="20.58"/>
    <ellipse class="cls-4" cx="78.16" cy="30.75" rx="3.08" ry="3.01"/>
    <ellipse class="cls-5" cx="53.44" cy="30.94" rx="16.17" ry="15.81"/>
    <ellipse class="cls-5" cx="102.47" cy="30.84" rx="16.17" ry="15.81"/>
    <path class="cls-4" d="M92.9,47.5a13.92,13.92,0,0,0,10.55,8.62,1.53,1.53,0,0,0,1.84-1,1.51,1.51,0,0,0-1.05-1.84,11.2,11.2,0,0,1-1.5-.34c-.25-.07-.5-.15-.74-.24l-.32-.13c-.43-.16.25.13-.16-.06a13.65,13.65,0,0,1-1.31-.69c-.22-.13-.43-.27-.64-.41l-.29-.2L99.11,51c.1.08.11.09,0,0a11.22,11.22,0,0,1-1.09-1c-.18-.18-.35-.36-.52-.56s-.15-.17-.23-.26-.28-.37-.11-.13c-.3-.41-.58-.83-.84-1.27L96,47.24c-.06-.13-.12-.25-.17-.38-.14-.29.06.17-.06-.15A1.54,1.54,0,0,0,94,45.66a1.51,1.51,0,0,0-1,1.84Z" transform="translate(-51.88 -12.6)"/>
    <path class="cls-4" d="M163.26,46.63c-.16.43.13-.26-.06.16,0,.1-.09.21-.14.31s-.23.45-.36.67a12.19,12.19,0,0,1-.83,1.28c.12-.17,0,0-.07.07l-.22.27c-.17.19-.34.38-.52.56a12.32,12.32,0,0,1-1.14,1c-.13.1.13-.09-.09.06a4.15,4.15,0,0,1-.34.24c-.19.14-.39.26-.59.38a11.78,11.78,0,0,1-1.36.72l-.09,0-.33.13c-.26.1-.53.19-.8.27a15,15,0,0,1-1.51.34A1.51,1.51,0,0,0,153.76,55a1.56,1.56,0,0,0,1.85,1,13.92,13.92,0,0,0,10.55-8.62,1.51,1.51,0,0,0-1-1.84,1.54,1.54,0,0,0-1.85,1Z" transform="translate(-51.88 -12.6)"/>
    <path class="cls-2" d="M151.56,28.46c1.15,1.41.34,3.39.24,5A6.6,6.6,0,0,0,153,37.82c1.69,2.2,5.23,2.89,7.12.52.3-.37-.23-.91-.53-.53A3.52,3.52,0,0,1,156,39a4.58,4.58,0,0,1-3-2.81,8.69,8.69,0,0,1-.14-4.61,4.48,4.48,0,0,0-.72-3.63c-.3-.37-.83.16-.53.53Z" transform="translate(-51.88 -12.6)"/>
    <path class="cls-2" d="M148.49,29.14a11.63,11.63,0,0,1,2.06,5.73c.16,2.05-.55,3.86-.76,5.86-.19,1.8.57,3.34,1.31,4.93.83,1.8,1.72,5-1,5.77a.37.37,0,0,0,.2.72,3.42,3.42,0,0,0,2.39-3.41c0-2.45-1.86-4.35-2.18-6.71a12,12,0,0,1,.53-3.89,12,12,0,0,0,.22-3.27,12.44,12.44,0,0,0-2.16-6.11c-.28-.4-.93,0-.65.38Z" transform="translate(-51.88 -12.6)"/>
    <path class="cls-2" d="M105.5,27.84a6.42,6.42,0,0,0-.52,4,11.42,11.42,0,0,0,2.11,4.06,14.06,14.06,0,0,1,2.09,4.47c.42,1.67.44,4.14-1.55,4.81-.45.16-.26.88.2.73,3.23-1.09,2.44-5.24,1.43-7.63A33.19,33.19,0,0,0,106.68,34a5.85,5.85,0,0,1-.53-5.73c.2-.44-.45-.82-.65-.38Z" transform="translate(-51.88 -12.6)"/>
  </g>
  <text class="cls-6" transform="translate(17.58 69.61) scale(0.99 1)">T<tspan class="cls-7" x="5.94" y="0">YPE </tspan><tspan x="26.76" y="0">S</tspan><tspan class="cls-7" x="31.94" y="0">AFE </tspan><tspan x="53.06" y="0">O</tspan><tspan class="cls-7" x="60.79" y="0">BSE</tspan><tspan class="cls-8" x="77.47" y="0">R</tspan><tspan class="cls-9" x="82.98" y="0">V</tspan><tspan class="cls-7" x="89.45" y="0">ABLES</tspan></text>
</svg>
